<?xml version="1.0" encoding="UTF-8"?>
<!DOCTYPE svg PUBLIC "-//W3C//DTD SVG 1.1//EN" "http://www.w3.org/Graphics/SVG/1.1/DTD/svg11.dtd">
<!-- Creator: CorelDRAW -->
<svg xmlns="http://www.w3.org/2000/svg" xml:space="preserve" width="64px" height="64px" version="1.1" style="shape-rendering:geometricPrecision; text-rendering:geometricPrecision; image-rendering:optimizeQuality; fill-rule:evenodd; clip-rule:evenodd"
viewBox="0 0 64000 64000"
 xmlns:xlink="http://www.w3.org/1999/xlink">
 <defs>
    <style type="text/css">
     <![CDATA[
        .fil0 {fill:#0071C2}
     ]]>
    </style>
 </defs>
 <g id="Layer_x0020_1">
  <metadata id="CorelCorpID_0Corel-Layer"/>
  <path class="fil0" d="M50702 25831l12453 33931c454,1514 -1862,4020 -3090,2421l-19891 -24429 10528 -11923zm-37295 24780l14238 -21082 20819 -22980c2524,-2785 5958,-4942 11235,-6435 944,-267 1867,-59 2583,582 716,641 1024,1536 862,2503 -905,5410 -2672,9061 -5163,11874l-20556 23216c-1251,1413 -19492,16532 -19492,16532 -3727,3329 -7439,103 -4526,-4210zm11866 476l2551 11181 -2402 1731 -5828 -8421 5679 -4491zm13297 -36122l-35093 -8653c-1554,-285 -3791,2292 -2067,3337l26465 17089 10695 -11773zm-22312 28048l-11393 -1308 -1457 2577 9009 4869 3841 -6138z"/>
 </g>
</svg>
